<svg xmlns="http://www.w3.org/2000/svg" xmlns:xlink="http://www.w3.org/1999/xlink" width="100" zoomAndPan="magnify" viewBox="0 0 75 74.999997" height="100" preserveAspectRatio="xMidYMid meet" version="1.0"><path fill="#ffcc4d" d="M 75 37.5 C 75 58.210938 58.210938 75 37.5 75 C 16.789062 75 0 58.210938 0 37.5 C 0 16.789062 16.789062 0 37.5 0 C 58.210938 0 75 16.789062 75 37.5 " fill-opacity="1" fill-rule="nonzero"/><path fill="#ff7892" d="M 25 37.5 C 25 38.183594 24.933594 38.863281 24.800781 39.53125 C 24.667969 40.203125 24.46875 40.855469 24.207031 41.484375 C 23.945312 42.117188 23.625 42.71875 23.246094 43.289062 C 22.863281 43.855469 22.433594 44.382812 21.949219 44.867188 C 21.464844 45.347656 20.9375 45.78125 20.371094 46.160156 C 19.800781 46.542969 19.203125 46.863281 18.570312 47.125 C 17.9375 47.386719 17.285156 47.582031 16.617188 47.714844 C 15.945312 47.851562 15.265625 47.917969 14.582031 47.917969 C 13.898438 47.917969 13.222656 47.851562 12.550781 47.714844 C 11.878906 47.582031 11.230469 47.386719 10.597656 47.125 C 9.964844 46.863281 9.363281 46.542969 8.796875 46.160156 C 8.226562 45.78125 7.703125 45.347656 7.21875 44.867188 C 6.734375 44.382812 6.300781 43.855469 5.921875 43.289062 C 5.542969 42.71875 5.222656 42.117188 4.960938 41.484375 C 4.699219 40.855469 4.5 40.203125 4.367188 39.53125 C 4.234375 38.863281 4.167969 38.183594 4.167969 37.5 C 4.167969 36.816406 4.234375 36.136719 4.367188 35.46875 C 4.5 34.796875 4.699219 34.144531 4.960938 33.515625 C 5.222656 32.882812 5.542969 32.28125 5.921875 31.710938 C 6.300781 31.144531 6.734375 30.617188 7.21875 30.132812 C 7.703125 29.652344 8.226562 29.21875 8.796875 28.839844 C 9.363281 28.457031 9.964844 28.136719 10.597656 27.875 C 11.230469 27.613281 11.878906 27.417969 12.550781 27.285156 C 13.222656 27.148438 13.898438 27.082031 14.582031 27.082031 C 15.265625 27.082031 15.945312 27.148438 16.617188 27.285156 C 17.285156 27.417969 17.9375 27.613281 18.570312 27.875 C 19.203125 28.136719 19.800781 28.457031 20.371094 28.839844 C 20.9375 29.21875 21.464844 29.652344 21.949219 30.132812 C 22.433594 30.617188 22.863281 31.144531 23.246094 31.710938 C 23.625 32.28125 23.945312 32.882812 24.207031 33.515625 C 24.46875 34.144531 24.667969 34.796875 24.800781 35.46875 C 24.933594 36.136719 25 36.816406 25 37.5 Z M 25 37.5 " fill-opacity="1" fill-rule="nonzero"/><path fill="#ff7892" d="M 70.832031 37.5 C 70.832031 38.183594 70.765625 38.863281 70.632812 39.53125 C 70.5 40.203125 70.300781 40.855469 70.039062 41.484375 C 69.777344 42.117188 69.457031 42.71875 69.078125 43.289062 C 68.699219 43.855469 68.265625 44.382812 67.78125 44.867188 C 67.296875 45.347656 66.773438 45.78125 66.203125 46.160156 C 65.636719 46.542969 65.035156 46.863281 64.402344 47.125 C 63.769531 47.386719 63.121094 47.582031 62.449219 47.714844 C 61.777344 47.851562 61.101562 47.917969 60.417969 47.917969 C 59.734375 47.917969 59.054688 47.851562 58.382812 47.714844 C 57.714844 47.582031 57.0625 47.386719 56.429688 47.125 C 55.796875 46.863281 55.199219 46.542969 54.628906 46.160156 C 54.0625 45.78125 53.535156 45.347656 53.050781 44.867188 C 52.566406 44.382812 52.136719 43.855469 51.753906 43.289062 C 51.375 42.71875 51.054688 42.117188 50.792969 41.484375 C 50.53125 40.855469 50.332031 40.203125 50.199219 39.53125 C 50.066406 38.863281 50 38.183594 50 37.5 C 50 36.816406 50.066406 36.136719 50.199219 35.46875 C 50.332031 34.796875 50.53125 34.144531 50.792969 33.515625 C 51.054688 32.882812 51.375 32.28125 51.753906 31.710938 C 52.136719 31.144531 52.566406 30.617188 53.050781 30.132812 C 53.535156 29.652344 54.0625 29.21875 54.628906 28.839844 C 55.199219 28.457031 55.796875 28.136719 56.429688 27.875 C 57.0625 27.613281 57.714844 27.417969 58.382812 27.285156 C 59.054688 27.148438 59.734375 27.082031 60.417969 27.082031 C 61.101562 27.082031 61.777344 27.148438 62.449219 27.285156 C 63.121094 27.417969 63.769531 27.613281 64.402344 27.875 C 65.035156 28.136719 65.636719 28.457031 66.203125 28.839844 C 66.773438 29.21875 67.296875 29.652344 67.78125 30.132812 C 68.265625 30.617188 68.699219 31.144531 69.078125 31.710938 C 69.457031 32.28125 69.777344 32.882812 70.039062 33.515625 C 70.300781 34.144531 70.5 34.796875 70.632812 35.46875 C 70.765625 36.136719 70.832031 36.816406 70.832031 37.5 Z M 70.832031 37.5 " fill-opacity="1" fill-rule="nonzero"/><path fill="#664500" d="M 56.949219 45.058594 C 56.578125 44.726562 56.023438 44.703125 55.625 45 C 55.542969 45.058594 47.453125 51.042969 37.5 51.042969 C 27.570312 51.042969 19.453125 45.058594 19.375 45 C 18.976562 44.703125 18.421875 44.730469 18.050781 45.058594 C 17.683594 45.394531 17.601562 45.945312 17.855469 46.367188 C 18.125 46.816406 24.558594 57.292969 37.5 57.292969 C 50.441406 57.292969 56.878906 46.816406 57.144531 46.367188 C 57.398438 45.941406 57.320312 45.394531 56.949219 45.058594 Z M 16.664062 31.25 C 16.351562 31.25 16.035156 31.179688 15.734375 31.027344 C 14.707031 30.515625 14.289062 29.261719 14.804688 28.234375 C 14.914062 28.015625 17.550781 22.917969 25 22.917969 C 32.453125 22.917969 35.085938 28.019531 35.195312 28.234375 C 35.710938 29.265625 35.292969 30.515625 34.265625 31.03125 C 33.238281 31.542969 32.003906 31.132812 31.480469 30.121094 C 31.390625 29.957031 29.753906 27.082031 25 27.082031 C 20.171875 27.082031 18.542969 30.070312 18.527344 30.097656 C 18.164062 30.828125 17.429688 31.25 16.664062 31.25 Z M 58.335938 31.25 C 57.570312 31.25 56.835938 30.828125 56.46875 30.097656 C 56.417969 30.003906 54.789062 27.082031 50 27.082031 C 45.210938 27.082031 43.582031 30.003906 43.515625 30.125 C 42.976562 31.128906 41.726562 31.519531 40.714844 31 C 39.703125 30.476562 39.292969 29.253906 39.800781 28.234375 C 39.910156 28.019531 42.546875 22.917969 50 22.917969 C 57.453125 22.917969 60.089844 28.019531 60.199219 28.234375 C 60.710938 29.265625 60.296875 30.515625 59.265625 31.03125 C 58.964844 31.179688 58.648438 31.25 58.335938 31.25 Z M 58.335938 31.25 " fill-opacity="1" fill-rule="nonzero"/></svg>