<svg xmlns="http://www.w3.org/2000/svg" xmlns:xlink="http://www.w3.org/1999/xlink" width="100" zoomAndPan="magnify" viewBox="0 0 75 74.999997" height="100" preserveAspectRatio="xMidYMid meet" version="1.0"><defs><clipPath id="c5f9baf45f"><path d="M 5.605469 24 L 72.355469 24 L 72.355469 75 L 5.605469 75 Z M 5.605469 24 " clip-rule="nonzero"/></clipPath><clipPath id="9fa8bf613d"><path d="M 5.605469 8 L 72.355469 8 L 72.355469 27 L 5.605469 27 Z M 5.605469 8 " clip-rule="nonzero"/></clipPath></defs><path fill="#66757f" d="M 61.539062 8.128906 L 65.703125 8.128906 L 65.703125 10.210938 L 61.539062 10.210938 Z M 61.539062 8.128906 " fill-opacity="1" fill-rule="nonzero"/><g clip-path="url(#c5f9baf45f)"><path fill="#ccd6dd" d="M 5.605469 24.792969 L 5.605469 66.453125 C 5.605469 71.054688 9.339844 74.785156 13.949219 74.785156 L 64.011719 74.785156 C 68.621094 74.785156 72.355469 71.054688 72.355469 66.453125 L 72.355469 24.792969 Z M 5.605469 24.792969 " fill-opacity="1" fill-rule="nonzero"/></g><g clip-path="url(#9fa8bf613d)"><path fill="#dd2e44" d="M 64.011719 8.128906 L 13.949219 8.128906 C 9.339844 8.128906 5.605469 11.859375 5.605469 16.460938 L 5.605469 26.875 L 72.355469 26.875 L 72.355469 16.460938 C 72.355469 11.859375 68.621094 8.128906 64.011719 8.128906 Z M 64.011719 8.128906 " fill-opacity="1" fill-rule="nonzero"/></g><path fill="#292f33" d="M 19.863281 17.984375 C 18.402344 17.984375 17.214844 16.597656 17.214844 14.882812 C 17.214844 13.171875 18.402344 11.78125 19.863281 11.78125 C 21.328125 11.78125 22.515625 13.171875 22.515625 14.882812 C 22.515625 16.59375 21.328125 17.984375 19.863281 17.984375 Z M 32.378906 17.984375 C 30.917969 17.984375 29.730469 16.597656 29.730469 14.882812 C 29.730469 13.171875 30.917969 11.78125 32.378906 11.78125 C 33.84375 11.78125 35.03125 13.171875 35.03125 14.882812 C 35.03125 16.59375 33.84375 17.984375 32.378906 17.984375 Z M 44.894531 17.984375 C 43.433594 17.984375 42.246094 16.597656 42.246094 14.882812 C 42.246094 13.171875 43.433594 11.78125 44.894531 11.78125 C 46.359375 11.78125 47.546875 13.171875 47.546875 14.882812 C 47.546875 16.59375 46.359375 17.984375 44.894531 17.984375 Z M 57.410156 17.984375 C 55.949219 17.984375 54.761719 16.597656 54.761719 14.882812 C 54.761719 13.171875 55.949219 11.78125 57.410156 11.78125 C 58.875 11.78125 60.0625 13.171875 60.0625 14.882812 C 60.0625 16.59375 58.875 17.984375 57.410156 17.984375 Z M 57.410156 17.984375 " fill-opacity="1" fill-rule="nonzero"/><path fill="#66757f" d="M 58.410156 0.171875 C 55.746094 0.171875 53.441406 1.839844 52.164062 4.273438 C 50.902344 1.894531 48.585938 0.171875 45.894531 0.171875 C 43.230469 0.171875 40.925781 1.839844 39.648438 4.273438 C 38.386719 1.894531 36.070312 0.171875 33.378906 0.171875 C 30.714844 0.171875 28.410156 1.839844 27.132812 4.273438 C 25.871094 1.894531 23.554688 0.171875 20.863281 0.171875 C 16.832031 0.171875 13.5625 3.960938 13.5625 8.511719 C 13.5625 12.375 15.742188 15.535156 18.921875 16.691406 C 20.503906 17.261719 21.476562 15.757812 21.339844 14.554688 C 21.226562 13.554688 20.558594 12.902344 19.820312 12.433594 C 18.808594 11.792969 17.734375 10.332031 17.734375 8.523438 C 17.734375 6.222656 19.132812 4.160156 20.863281 4.160156 C 22.589844 4.160156 23.992188 6.042969 23.992188 8.128906 L 26.109375 8.128906 C 26.105469 8.257812 26.078125 8.378906 26.078125 8.511719 C 26.078125 12.371094 28.257812 15.53125 31.4375 16.6875 C 33.019531 17.261719 33.988281 15.757812 33.851562 14.550781 C 33.738281 13.554688 33.074219 12.902344 32.332031 12.433594 C 31.320312 11.792969 30.246094 10.332031 30.246094 8.523438 C 30.246094 6.222656 31.648438 4.160156 33.375 4.160156 C 35.105469 4.160156 36.507812 6.046875 36.507812 8.128906 L 38.628906 8.128906 C 38.621094 8.257812 38.59375 8.382812 38.59375 8.511719 C 38.59375 12.375 40.773438 15.535156 43.953125 16.691406 C 45.535156 17.261719 46.507812 15.757812 46.371094 14.554688 C 46.257812 13.554688 45.589844 12.902344 44.851562 12.433594 C 43.839844 11.796875 42.765625 10.335938 42.765625 8.523438 C 42.765625 6.226562 44.164062 4.160156 45.894531 4.160156 C 47.621094 4.160156 49.023438 6.046875 49.023438 8.128906 L 51.144531 8.128906 C 51.136719 8.257812 51.109375 8.382812 51.109375 8.511719 C 51.109375 12.375 53.289062 15.535156 56.46875 16.691406 C 58.050781 17.261719 59.023438 15.757812 58.886719 14.554688 C 58.773438 13.554688 58.105469 12.902344 57.367188 12.433594 C 56.355469 11.796875 55.28125 10.335938 55.28125 8.523438 C 55.28125 6.226562 56.679688 4.160156 58.410156 4.160156 C 60.136719 4.160156 61.539062 6.046875 61.539062 8.128906 L 65.703125 8.128906 C 65.660156 3.964844 62.417969 0.171875 58.410156 0.171875 Z M 58.410156 0.171875 " fill-opacity="1" fill-rule="nonzero"/><path fill="#ffffff" d="M 24.378906 31.042969 L 32.722656 31.042969 L 32.722656 39.375 L 24.378906 39.375 Z M 34.808594 31.042969 L 43.152344 31.042969 L 43.152344 39.375 L 34.808594 39.375 Z M 45.238281 31.042969 L 53.582031 31.042969 L 53.582031 39.375 L 45.238281 39.375 Z M 55.667969 31.042969 L 64.011719 31.042969 L 64.011719 39.375 L 55.667969 39.375 Z M 13.949219 41.457031 L 22.292969 41.457031 L 22.292969 49.789062 L 13.949219 49.789062 Z M 24.378906 41.457031 L 32.722656 41.457031 L 32.722656 49.789062 L 24.378906 49.789062 Z M 34.808594 41.457031 L 43.152344 41.457031 L 43.152344 49.789062 L 34.808594 49.789062 Z M 45.238281 41.457031 L 53.582031 41.457031 L 53.582031 49.789062 L 45.238281 49.789062 Z M 55.667969 41.457031 L 64.011719 41.457031 L 64.011719 49.789062 L 55.667969 49.789062 Z M 13.949219 51.871094 L 22.292969 51.871094 L 22.292969 60.203125 L 13.949219 60.203125 Z M 24.378906 51.871094 L 32.722656 51.871094 L 32.722656 60.203125 L 24.378906 60.203125 Z M 34.808594 51.871094 L 43.152344 51.871094 L 43.152344 60.203125 L 34.808594 60.203125 Z M 45.238281 51.871094 L 53.582031 51.871094 L 53.582031 60.203125 L 45.238281 60.203125 Z M 55.667969 51.871094 L 64.011719 51.871094 L 64.011719 60.203125 L 55.667969 60.203125 Z M 13.949219 62.289062 L 22.292969 62.289062 L 22.292969 70.621094 L 13.949219 70.621094 Z M 24.378906 62.289062 L 32.722656 62.289062 L 32.722656 70.621094 L 24.378906 70.621094 Z M 34.808594 62.289062 L 43.152344 62.289062 L 43.152344 70.621094 L 34.808594 70.621094 Z M 34.808594 62.289062 " fill-opacity="1" fill-rule="nonzero"/></svg>