<svg xmlns="http://www.w3.org/2000/svg" xmlns:xlink="http://www.w3.org/1999/xlink" width="100" zoomAndPan="magnify" viewBox="0 0 75 74.999997" height="100" preserveAspectRatio="xMidYMid meet" version="1.0"><path fill="#f5f8fa" d="M 67.269531 37.902344 C 67.28125 37.542969 67.550781 37.117188 67.875 36.957031 L 74.410156 33.683594 C 74.730469 33.523438 74.945312 33.101562 74.890625 32.746094 L 73.382812 25.800781 C 73.285156 25.457031 72.914062 25.152344 72.554688 25.128906 L 65.125 24.648438 C 64.765625 24.625 64.339844 24.34375 64.175781 24.023438 L 63.164062 22.164062 C 62.984375 21.855469 62.984375 21.347656 63.167969 21.039062 L 66.921875 14.710938 C 67.105469 14.402344 67.0625 13.925781 66.824219 13.65625 L 61.769531 8.5 C 61.503906 8.257812 61.027344 8.203125 60.714844 8.378906 L 54.246094 11.964844 C 53.933594 12.140625 53.421875 12.128906 53.117188 11.945312 L 51.367188 10.953125 C 51.050781 10.78125 50.78125 10.351562 50.765625 9.992188 L 50.5 2.578125 C 50.488281 2.21875 50.195312 1.839844 49.851562 1.734375 L 42.847656 0.0585938 C 42.496094 -0.00390625 42.066406 0.203125 41.894531 0.519531 L 38.417969 6.992188 C 38.246094 7.308594 37.960938 7.566406 37.777344 7.5625 L 37.613281 7.5625 C 36.601562 7.5625 35.273438 7.664062 35.273438 7.664062 C 34.917969 7.691406 34.453125 7.46875 34.25 7.175781 L 30 1.054688 C 29.792969 0.757812 29.34375 0.597656 28.996094 0.691406 L 22.304688 2.949219 C 21.972656 3.082031 21.722656 3.484375 21.75 3.84375 L 22.320312 11.121094 C 22.347656 11.476562 22.125 11.929688 21.824219 12.125 L 19.695312 13.597656 C 19.40625 13.8125 18.898438 13.875 18.566406 13.738281 L 11.679688 10.886719 C 11.347656 10.75 10.878906 10.855469 10.636719 11.125 L 6.34375 16.445312 C 6.136719 16.738281 6.140625 17.210938 6.359375 17.496094 L 10.75 23.28125 C 10.96875 23.566406 11.019531 24.070312 10.871094 24.394531 L 9.675781 27.253906 C 9.550781 27.589844 9.15625 27.917969 8.800781 27.984375 L 1.496094 29.304688 C 1.140625 29.367188 0.804688 29.710938 0.75 30.066406 C 0.75 30.066406 0.0351562 34.558594 0.0351562 37.238281 L 0.0351562 37.253906 C 0.0351562 37.269531 0.3125 37.382812 0.648438 37.507812 L 7.46875 39.996094 C 7.804688 40.121094 8.125 40.515625 8.175781 40.871094 L 8.8125 44.355469 C 8.894531 44.707031 8.742188 45.191406 8.480469 45.4375 L 3.082031 50.46875 C 2.816406 50.714844 2.722656 51.183594 2.871094 51.507812 L 5.816406 57.21875 C 6 57.53125 6.433594 57.71875 6.785156 57.640625 L 13.898438 56.042969 C 14.25 55.964844 14.730469 56.121094 14.96875 56.390625 L 17.589844 59.117188 C 17.851562 59.363281 17.992188 59.851562 17.902344 60.203125 L 16.089844 67.300781 C 16.003906 67.648438 16.179688 68.089844 16.480469 68.28125 L 22.035156 71.410156 C 22.355469 71.574219 22.828125 71.496094 23.078125 71.238281 L 28.230469 66.015625 C 28.484375 65.761719 28.972656 65.628906 29.320312 65.722656 L 32.984375 66.535156 C 33.335938 66.597656 33.71875 66.929688 33.832031 67.269531 L 36.132812 74.171875 C 36.246094 74.511719 36.632812 74.800781 36.992188 74.8125 C 36.992188 74.8125 37.183594 74.816406 37.609375 74.816406 C 39.820312 74.816406 43.441406 74.34375 43.441406 74.34375 C 43.796875 74.296875 44.148438 73.96875 44.222656 73.617188 L 45.746094 66.390625 C 45.816406 66.039062 46.15625 65.65625 46.5 65.542969 L 49.722656 64.320312 C 50.050781 64.179688 50.550781 64.246094 50.832031 64.472656 L 56.484375 69.027344 C 56.765625 69.253906 57.238281 69.273438 57.535156 69.070312 L 62.839844 65.046875 C 63.113281 64.8125 63.234375 64.347656 63.105469 64.011719 L 60.460938 57.0625 C 60.332031 56.726562 60.410156 56.222656 60.632812 55.941406 L 62.386719 53.550781 C 62.585938 53.253906 63.046875 53.042969 63.402344 53.082031 L 70.636719 53.855469 C 70.992188 53.894531 71.402344 53.65625 71.542969 53.328125 L 73.914062 46.847656 C 74.019531 46.503906 73.867188 46.046875 73.578125 45.835938 L 67.578125 41.40625 C 67.285156 41.191406 67.078125 40.726562 67.113281 40.367188 Z M 37.515625 59.277344 C 25.421875 59.277344 15.617188 49.476562 15.617188 37.378906 C 15.617188 25.285156 25.421875 15.480469 37.515625 15.480469 C 49.609375 15.480469 59.414062 25.285156 59.414062 37.378906 C 59.414062 49.476562 49.609375 59.277344 37.515625 59.277344 Z M 37.515625 59.277344 " fill-opacity="1" fill-rule="nonzero"/></svg>