<svg xmlns="http://www.w3.org/2000/svg" xmlns:xlink="http://www.w3.org/1999/xlink" width="100" zoomAndPan="magnify" viewBox="0 0 75 74.999997" height="100" preserveAspectRatio="xMidYMid meet" version="1.0"><path fill="#ffcc4d" d="M 75 37.5 C 75 58.210938 58.210938 75 37.5 75 C 16.792969 75 0 58.210938 0 37.5 C 0 16.792969 16.792969 0 37.5 0 C 58.210938 0 75 16.792969 75 37.5 " fill-opacity="1" fill-rule="nonzero"/><path fill="#664500" d="M 53.09375 58.082031 C 53 57.707031 50.660156 48.957031 37.5 48.957031 C 24.335938 48.957031 22 57.707031 21.90625 58.082031 C 21.792969 58.535156 21.996094 59.003906 22.398438 59.234375 C 22.804688 59.464844 23.316406 59.398438 23.648438 59.074219 C 23.691406 59.035156 27.722656 55.207031 37.5 55.207031 C 47.277344 55.207031 51.3125 59.035156 51.351562 59.074219 C 51.550781 59.269531 51.816406 59.375 52.082031 59.375 C 52.257812 59.375 52.433594 59.332031 52.597656 59.242188 C 53.003906 59.007812 53.207031 58.535156 53.09375 58.082031 Z M 60.417969 29.167969 C 59.785156 29.167969 59.160156 28.878906 58.75 28.332031 C 53.683594 21.574219 45.179688 26.570312 44.820312 26.785156 C 43.832031 27.378906 42.550781 27.054688 41.960938 26.070312 C 41.371094 25.082031 41.691406 23.804688 42.675781 23.210938 C 46.839844 20.714844 56.246094 18.050781 62.082031 25.832031 C 62.773438 26.753906 62.585938 28.058594 61.664062 28.746094 C 61.292969 29.03125 60.855469 29.167969 60.417969 29.167969 Z M 14.582031 29.167969 C 14.148438 29.167969 13.707031 29.03125 13.332031 28.75 C 12.414062 28.058594 12.226562 26.753906 12.917969 25.832031 C 18.753906 18.054688 28.160156 20.714844 32.320312 23.214844 C 33.308594 23.804688 33.628906 25.085938 33.035156 26.074219 C 32.445312 27.058594 31.167969 27.382812 30.179688 26.789062 C 29.808594 26.570312 21.277344 21.632812 16.246094 28.335938 C 15.839844 28.878906 15.214844 29.167969 14.582031 29.167969 Z M 60.417969 33.332031 C 60.417969 32.183594 59.484375 31.25 58.332031 31.25 L 43.75 31.25 C 42.597656 31.25 41.667969 32.183594 41.667969 33.332031 C 41.667969 34.484375 42.597656 35.417969 43.75 35.417969 L 54.359375 35.417969 C 54.789062 36.628906 55.933594 37.5 57.292969 37.5 C 59.015625 37.5 60.417969 36.101562 60.417969 34.375 C 60.417969 34.144531 60.386719 33.921875 60.339844 33.707031 C 60.367188 33.582031 60.417969 33.464844 60.417969 33.332031 Z M 33.332031 33.332031 C 33.332031 32.183594 32.398438 31.25 31.25 31.25 L 16.667969 31.25 C 15.515625 31.25 14.582031 32.183594 14.582031 33.332031 C 14.582031 34.484375 15.515625 35.417969 16.667969 35.417969 L 27.273438 35.417969 C 27.707031 36.628906 28.851562 37.5 30.207031 37.5 C 31.933594 37.5 33.332031 36.101562 33.332031 34.375 C 33.332031 34.144531 33.304688 33.921875 33.257812 33.707031 C 33.28125 33.582031 33.332031 33.464844 33.332031 33.332031 Z M 33.332031 33.332031 " fill-opacity="1" fill-rule="nonzero"/></svg>