<svg xmlns="http://www.w3.org/2000/svg" xmlns:xlink="http://www.w3.org/1999/xlink" width="100" zoomAndPan="magnify" viewBox="0 0 75 74.999997" height="100" preserveAspectRatio="xMidYMid meet" version="1.0"><path fill="#da2f47" d="M 75 37.5 C 75 58.210938 58.210938 75 37.5 75 C 16.792969 75 0 58.210938 0 37.5 C 0 16.792969 16.792969 0 37.5 0 C 58.210938 0 75 16.792969 75 37.5 " fill-opacity="1" fill-rule="nonzero"/><path fill="#292f33" d="M 53.09375 62.246094 C 53 61.875 50.660156 53.125 37.5 53.125 C 24.335938 53.125 22 61.875 21.90625 62.246094 C 21.792969 62.699219 21.996094 63.167969 22.398438 63.402344 C 22.804688 63.628906 23.316406 63.566406 23.648438 63.242188 C 23.691406 63.203125 27.722656 59.375 37.5 59.375 C 47.277344 59.375 51.3125 63.203125 51.351562 63.238281 C 51.550781 63.4375 51.816406 63.542969 52.082031 63.542969 C 52.257812 63.542969 52.433594 63.496094 52.597656 63.410156 C 53.003906 63.175781 53.207031 62.703125 53.09375 62.246094 Z M 32.722656 36.027344 C 25.941406 29.246094 15.042969 29.167969 14.582031 29.167969 C 13.433594 29.167969 12.503906 30.097656 12.503906 31.246094 C 12.5 32.394531 13.429688 33.328125 14.582031 33.332031 C 14.640625 33.332031 18.589844 33.378906 22.878906 34.867188 C 21.644531 36.203125 20.832031 38.273438 20.832031 40.625 C 20.832031 44.652344 23.164062 47.917969 26.042969 47.917969 C 28.917969 47.917969 31.25 44.652344 31.25 40.625 C 31.25 40.261719 31.210938 39.917969 31.171875 39.570312 C 31.199219 39.570312 31.226562 39.582031 31.25 39.582031 C 31.785156 39.582031 32.316406 39.378906 32.722656 38.972656 C 33.539062 38.160156 33.539062 36.839844 32.722656 36.027344 Z M 60.417969 29.167969 C 59.957031 29.167969 49.058594 29.246094 42.277344 36.027344 C 41.460938 36.839844 41.460938 38.160156 42.277344 38.972656 C 42.683594 39.378906 43.214844 39.582031 43.75 39.582031 C 43.777344 39.582031 43.800781 39.570312 43.824219 39.570312 C 43.792969 39.917969 43.75 40.261719 43.75 40.625 C 43.75 44.652344 46.082031 47.917969 48.957031 47.917969 C 51.835938 47.917969 54.167969 44.652344 54.167969 40.625 C 54.167969 38.273438 53.355469 36.203125 52.121094 34.867188 C 56.410156 33.378906 60.359375 33.332031 60.421875 33.332031 C 61.570312 33.328125 62.5 32.394531 62.496094 31.246094 C 62.496094 30.097656 61.566406 29.167969 60.417969 29.167969 Z M 60.417969 29.167969 " fill-opacity="1" fill-rule="nonzero"/></svg>