<svg xmlns="http://www.w3.org/2000/svg" xmlns:xlink="http://www.w3.org/1999/xlink" width="100" zoomAndPan="magnify" viewBox="0 0 75 74.999997" height="100" preserveAspectRatio="xMidYMid meet" version="1.0"><defs><clipPath id="6eb24d8964"><path d="M 2 2 L 74 2 L 74 73.21875 L 2 73.21875 Z M 2 2 " clip-rule="nonzero"/></clipPath><clipPath id="ce738c3ed5"><path d="M 2 38 L 74 38 L 74 73.21875 L 2 73.21875 Z M 2 38 " clip-rule="nonzero"/></clipPath></defs><g clip-path="url(#6eb24d8964)"><path fill="#ffcc4d" d="M 37.894531 2.160156 C 18.378906 2.160156 2.550781 18.027344 2.550781 37.59375 C 2.550781 49.503906 8.433594 60.019531 17.421875 66.441406 C 17.628906 53.769531 13.03125 39.5625 5.308594 39.5625 C 4.398438 39.5625 3.660156 39.691406 3.046875 39.921875 C 3.640625 38.433594 4.929688 37.59375 7.34375 37.59375 C 15.726562 37.59375 20.429688 54.339844 19.304688 67.6875 C 24.710938 71.054688 31.0625 73.027344 37.894531 73.027344 C 44.722656 73.027344 51.078125 71.050781 56.484375 67.6875 C 55.351562 54.285156 60.054688 37.59375 68.445312 37.59375 C 70.863281 37.59375 72.160156 38.433594 72.746094 39.921875 C 72.132812 39.691406 71.390625 39.5625 70.476562 39.5625 C 62.746094 39.5625 58.152344 53.734375 58.363281 66.441406 C 67.351562 60.019531 73.234375 49.503906 73.234375 37.59375 C 73.234375 18.027344 57.410156 2.160156 37.894531 2.160156 Z M 37.894531 2.160156 " fill-opacity="1" fill-rule="nonzero"/></g><path fill="#bdddf4" d="M 37.894531 2.160156 C 18.378906 2.160156 2.550781 18.027344 2.550781 37.59375 C 2.550781 39.941406 2.792969 42.230469 3.226562 44.453125 C 3.6875 42.753906 4.40625 41.125 5.304688 39.5625 C 4.394531 39.5625 3.660156 39.691406 3.046875 39.921875 C 3.566406 38.625 4.660156 37.859375 6.519531 37.675781 C 12.394531 29.449219 24.222656 23.8125 37.894531 23.8125 C 51.566406 23.8125 63.394531 29.445312 69.265625 37.671875 C 71.132812 37.859375 72.230469 38.621094 72.746094 39.921875 C 72.132812 39.691406 71.394531 39.5625 70.480469 39.5625 C 71.382812 41.125 72.097656 42.753906 72.558594 44.453125 C 72.992188 42.230469 73.234375 39.941406 73.234375 37.59375 C 73.234375 18.027344 57.410156 2.160156 37.894531 2.160156 Z M 37.894531 2.160156 " fill-opacity="1" fill-rule="nonzero"/><path fill="#f5f8fa" d="M 16.976562 25.605469 C 15.121094 31.859375 17.1875 37.992188 21.597656 39.308594 C 26.007812 40.628906 31.085938 36.628906 32.941406 30.378906 C 34.800781 24.128906 32.734375 17.988281 28.328125 16.671875 C 23.917969 15.355469 18.835938 19.355469 16.976562 25.605469 Z M 58.804688 25.605469 C 60.664062 31.859375 58.597656 37.992188 54.1875 39.308594 C 49.777344 40.628906 44.699219 36.628906 42.84375 30.378906 C 40.984375 24.128906 43.050781 17.988281 47.457031 16.671875 C 51.867188 15.355469 56.945312 19.355469 58.804688 25.605469 Z M 58.804688 25.605469 " fill-opacity="1" fill-rule="nonzero"/><path fill="#664500" d="M 37.894531 37.59375 C 32.480469 37.59375 28.074219 42.007812 28.074219 47.4375 L 28.074219 59.246094 C 28.074219 64.675781 32.480469 69.089844 37.894531 69.089844 C 43.304688 69.089844 47.710938 64.675781 47.710938 59.246094 L 47.710938 47.4375 C 47.710938 42.007812 43.304688 37.59375 37.894531 37.59375 Z M 37.894531 37.59375 " fill-opacity="1" fill-rule="nonzero"/><g clip-path="url(#ce738c3ed5)"><path fill="#fcab40" d="M 5.308594 39.5625 C 4.398438 39.5625 3.660156 39.691406 3.046875 39.921875 C 3.1875 39.570312 3.371094 39.261719 3.597656 38.984375 C -0.0585938 43.496094 8.144531 58.34375 4.160156 73.027344 L 16.839844 73.027344 C 19.179688 59.328125 14.417969 39.5625 5.308594 39.5625 Z M 72.746094 39.921875 C 72.132812 39.691406 71.390625 39.5625 70.476562 39.5625 C 61.363281 39.5625 56.605469 59.25 58.945312 73.027344 L 71.628906 73.027344 C 67.886719 59.160156 74.878906 45.292969 72.746094 39.921875 Z M 72.746094 39.921875 " fill-opacity="1" fill-rule="nonzero"/></g></svg>