<svg xmlns="http://www.w3.org/2000/svg" xmlns:xlink="http://www.w3.org/1999/xlink" width="100" zoomAndPan="magnify" viewBox="0 0 75 74.999997" height="100" preserveAspectRatio="xMidYMid meet" version="1.0"><defs><clipPath id="53e3d1c49e"><path d="M 2.5 0 L 72.25 0 L 72.25 71 L 2.5 71 Z M 2.5 0 " clip-rule="nonzero"/></clipPath></defs><g clip-path="url(#53e3d1c49e)"><path fill="#ffcb4c" d="M 72.25 35.601562 C 72.25 36.75 72.195312 37.898438 72.082031 39.042969 C 71.96875 40.191406 71.804688 41.328125 71.582031 42.457031 C 71.355469 43.585938 71.082031 44.699219 70.75 45.800781 C 70.417969 46.902344 70.03125 47.984375 69.59375 49.046875 C 69.160156 50.113281 68.671875 51.152344 68.132812 52.167969 C 67.59375 53.179688 67.007812 54.167969 66.371094 55.125 C 65.738281 56.082031 65.058594 57.003906 64.335938 57.894531 C 63.609375 58.785156 62.84375 59.636719 62.035156 60.449219 C 61.226562 61.265625 60.382812 62.035156 59.5 62.765625 C 58.617188 63.496094 57.699219 64.179688 56.75 64.820312 C 55.800781 65.460938 54.824219 66.050781 53.816406 66.59375 C 52.808594 67.136719 51.777344 67.628906 50.722656 68.066406 C 49.667969 68.507812 48.59375 68.894531 47.5 69.230469 C 46.40625 69.5625 45.300781 69.84375 44.179688 70.066406 C 43.058594 70.292969 41.929688 70.460938 40.792969 70.574219 C 39.65625 70.6875 38.515625 70.742188 37.375 70.742188 C 36.234375 70.742188 35.09375 70.6875 33.957031 70.574219 C 32.820312 70.460938 31.691406 70.292969 30.570312 70.066406 C 29.453125 69.84375 28.34375 69.5625 27.25 69.230469 C 26.160156 68.894531 25.085938 68.507812 24.027344 68.066406 C 22.972656 67.628906 21.941406 67.136719 20.933594 66.59375 C 19.929688 66.050781 18.949219 65.460938 18 64.820312 C 17.050781 64.179688 16.132812 63.496094 15.25 62.765625 C 14.367188 62.035156 13.523438 61.265625 12.714844 60.449219 C 11.90625 59.636719 11.140625 58.785156 10.417969 57.894531 C 9.691406 57.003906 9.011719 56.082031 8.378906 55.125 C 7.742188 54.167969 7.15625 53.179688 6.617188 52.167969 C 6.078125 51.152344 5.59375 50.113281 5.15625 49.046875 C 4.71875 47.984375 4.332031 46.902344 4.003906 45.800781 C 3.671875 44.699219 3.394531 43.585938 3.171875 42.457031 C 2.949219 41.328125 2.78125 40.191406 2.667969 39.042969 C 2.554688 37.898438 2.5 36.75 2.5 35.601562 C 2.5 34.449219 2.554688 33.300781 2.667969 32.15625 C 2.78125 31.007812 2.949219 29.871094 3.171875 28.742188 C 3.394531 27.613281 3.671875 26.5 4.003906 25.398438 C 4.332031 24.296875 4.71875 23.214844 5.15625 22.152344 C 5.59375 21.085938 6.078125 20.046875 6.617188 19.035156 C 7.15625 18.019531 7.742188 17.03125 8.378906 16.074219 C 9.011719 15.117188 9.691406 14.195312 10.417969 13.304688 C 11.140625 12.414062 11.90625 11.5625 12.714844 10.75 C 13.523438 9.9375 14.367188 9.164062 15.25 8.433594 C 16.132812 7.703125 17.050781 7.019531 18 6.378906 C 18.949219 5.738281 19.929688 5.148438 20.933594 4.605469 C 21.941406 4.0625 22.972656 3.570312 24.027344 3.132812 C 25.085938 2.691406 26.160156 2.304688 27.25 1.96875 C 28.34375 1.636719 29.453125 1.355469 30.570312 1.132812 C 31.691406 0.90625 32.820312 0.738281 33.957031 0.625 C 35.09375 0.511719 36.234375 0.457031 37.375 0.457031 C 38.515625 0.457031 39.65625 0.511719 40.792969 0.625 C 41.929688 0.738281 43.058594 0.90625 44.179688 1.132812 C 45.300781 1.355469 46.40625 1.636719 47.5 1.96875 C 48.59375 2.304688 49.667969 2.691406 50.722656 3.132812 C 51.777344 3.570312 52.808594 4.0625 53.816406 4.605469 C 54.824219 5.148438 55.800781 5.738281 56.75 6.378906 C 57.699219 7.019531 58.617188 7.703125 59.5 8.433594 C 60.382812 9.164062 61.226562 9.9375 62.035156 10.75 C 62.84375 11.5625 63.609375 12.414062 64.335938 13.304688 C 65.058594 14.195312 65.738281 15.117188 66.371094 16.074219 C 67.007812 17.03125 67.59375 18.019531 68.132812 19.035156 C 68.671875 20.046875 69.160156 21.085938 69.59375 22.152344 C 70.03125 23.214844 70.417969 24.296875 70.75 25.398438 C 71.082031 26.5 71.355469 27.613281 71.582031 28.742188 C 71.804688 29.871094 71.96875 31.007812 72.082031 32.15625 C 72.195312 33.300781 72.25 34.449219 72.25 35.601562 Z M 72.25 35.601562 " fill-opacity="1" fill-rule="nonzero"/></g><path fill="#65471b" d="M 30.246094 43.90625 C 29.945312 43.667969 29.714844 43.339844 29.605469 42.945312 C 29.328125 41.996094 29.871094 41.050781 30.816406 40.835938 C 40.105469 38.726562 46.359375 43.652344 46.625 43.863281 C 47.410156 44.496094 47.566406 45.613281 46.976562 46.355469 C 46.390625 47.097656 45.28125 47.183594 44.492188 46.554688 C 44.269531 46.382812 39.316406 42.582031 31.8125 44.285156 C 31.25 44.414062 30.675781 44.253906 30.246094 43.90625 Z M 30.246094 43.90625 " fill-opacity="1" fill-rule="nonzero"/><path fill="#65471b" d="M 31.722656 23.519531 C 31.722656 23.878906 31.695312 24.234375 31.636719 24.589844 C 31.582031 24.945312 31.5 25.285156 31.390625 25.621094 C 31.28125 25.953125 31.144531 26.269531 30.988281 26.570312 C 30.828125 26.867188 30.648438 27.144531 30.445312 27.402344 C 30.242188 27.65625 30.023438 27.882812 29.785156 28.085938 C 29.546875 28.285156 29.292969 28.453125 29.03125 28.589844 C 28.765625 28.730469 28.492188 28.832031 28.210938 28.902344 C 27.933594 28.972656 27.648438 29.007812 27.363281 29.007812 C 27.074219 29.007812 26.792969 28.972656 26.511719 28.902344 C 26.230469 28.832031 25.957031 28.730469 25.695312 28.589844 C 25.429688 28.453125 25.179688 28.285156 24.941406 28.085938 C 24.703125 27.882812 24.480469 27.65625 24.28125 27.402344 C 24.078125 27.144531 23.894531 26.867188 23.738281 26.570312 C 23.578125 26.269531 23.445312 25.953125 23.335938 25.621094 C 23.226562 25.285156 23.140625 24.945312 23.085938 24.589844 C 23.03125 24.234375 23.003906 23.878906 23.003906 23.519531 C 23.003906 23.15625 23.03125 22.800781 23.085938 22.449219 C 23.140625 22.09375 23.226562 21.75 23.335938 21.417969 C 23.445312 21.085938 23.578125 20.769531 23.738281 20.46875 C 23.894531 20.167969 24.078125 19.890625 24.28125 19.636719 C 24.480469 19.382812 24.703125 19.152344 24.941406 18.953125 C 25.179688 18.753906 25.429688 18.585938 25.695312 18.445312 C 25.957031 18.308594 26.230469 18.203125 26.511719 18.132812 C 26.792969 18.0625 27.074219 18.027344 27.363281 18.027344 C 27.648438 18.027344 27.933594 18.0625 28.210938 18.132812 C 28.492188 18.203125 28.765625 18.308594 29.03125 18.445312 C 29.292969 18.585938 29.546875 18.753906 29.785156 18.953125 C 30.023438 19.152344 30.242188 19.382812 30.445312 19.636719 C 30.648438 19.890625 30.828125 20.167969 30.988281 20.46875 C 31.144531 20.769531 31.28125 21.085938 31.390625 21.417969 C 31.5 21.75 31.582031 22.09375 31.636719 22.449219 C 31.695312 22.800781 31.722656 23.15625 31.722656 23.519531 Z M 31.722656 23.519531 " fill-opacity="1" fill-rule="nonzero"/><path fill="#65471b" d="M 54.8125 25.714844 C 54.8125 26.074219 54.785156 26.433594 54.730469 26.785156 C 54.671875 27.140625 54.589844 27.480469 54.480469 27.816406 C 54.371094 28.148438 54.238281 28.464844 54.078125 28.765625 C 53.917969 29.0625 53.738281 29.339844 53.535156 29.597656 C 53.332031 29.851562 53.113281 30.078125 52.875 30.28125 C 52.636719 30.480469 52.386719 30.648438 52.121094 30.785156 C 51.855469 30.925781 51.585938 31.027344 51.304688 31.097656 C 51.023438 31.167969 50.738281 31.203125 50.453125 31.203125 C 50.167969 31.203125 49.882812 31.167969 49.601562 31.097656 C 49.320312 31.027344 49.050781 30.925781 48.785156 30.785156 C 48.519531 30.648438 48.269531 30.480469 48.03125 30.28125 C 47.792969 30.078125 47.574219 29.851562 47.371094 29.597656 C 47.167969 29.339844 46.988281 29.0625 46.828125 28.765625 C 46.667969 28.464844 46.535156 28.148438 46.425781 27.816406 C 46.316406 27.480469 46.234375 27.140625 46.179688 26.785156 C 46.121094 26.433594 46.09375 26.074219 46.09375 25.714844 C 46.09375 25.355469 46.121094 24.996094 46.179688 24.644531 C 46.234375 24.289062 46.316406 23.945312 46.425781 23.613281 C 46.535156 23.28125 46.667969 22.964844 46.828125 22.664062 C 46.988281 22.363281 47.167969 22.085938 47.371094 21.832031 C 47.574219 21.578125 47.792969 21.347656 48.03125 21.148438 C 48.269531 20.949219 48.519531 20.78125 48.785156 20.640625 C 49.050781 20.503906 49.320312 20.398438 49.601562 20.328125 C 49.882812 20.257812 50.167969 20.222656 50.453125 20.222656 C 50.738281 20.222656 51.023438 20.257812 51.304688 20.328125 C 51.585938 20.398438 51.855469 20.503906 52.121094 20.640625 C 52.386719 20.78125 52.636719 20.949219 52.875 21.148438 C 53.113281 21.347656 53.332031 21.578125 53.535156 21.832031 C 53.738281 22.085938 53.917969 22.363281 54.078125 22.664062 C 54.238281 22.964844 54.371094 23.28125 54.480469 23.613281 C 54.589844 23.945312 54.671875 24.289062 54.730469 24.644531 C 54.785156 24.996094 54.8125 25.355469 54.8125 25.714844 Z M 54.8125 25.714844 " fill-opacity="1" fill-rule="nonzero"/><path fill="#f19020" d="M 35.890625 73.082031 C 35.890625 73.082031 38.484375 72.230469 38.820312 70.285156 C 39.175781 68.277344 37.542969 67.875 37.542969 67.875 C 37.542969 67.875 39.675781 67.445312 39.945312 65.027344 C 40.199219 62.753906 38.179688 62.210938 38.179688 62.210938 C 38.179688 62.210938 40.167969 61.382812 40.265625 59.03125 C 40.339844 57.046875 38.222656 56.078125 38.222656 56.078125 C 38.222656 56.078125 48.558594 53.554688 49.621094 53.304688 C 50.679688 53.058594 52.328125 52.035156 51.8125 49.804688 C 51.304688 47.570312 49.34375 47.492188 48.332031 47.730469 C 47.320312 47.96875 34.496094 50.96875 30.074219 52.003906 L 27.121094 52.695312 C 26.015625 52.957031 25.511719 52.46875 26.292969 51.636719 C 27.335938 50.53125 28.003906 49.304688 28.234375 47.269531 C 28.476562 45.128906 27.757812 42.488281 27.347656 41.460938 C 26.578125 39.558594 25.285156 38.054688 23.789062 37.535156 C 21.457031 36.730469 19.796875 38.199219 20.625 40.765625 C 21.863281 44.597656 21.050781 47.742188 18.917969 49.636719 C 13.890625 54.097656 11.554688 57.277344 13.109375 64.054688 C 14.808594 71.445312 22.089844 76.199219 29.425781 74.488281 Z M 35.890625 73.082031 " fill-opacity="1" fill-rule="nonzero"/><path fill="#65471b" d="M 19.519531 13.546875 C 19.183594 13.367188 18.898438 13.085938 18.71875 12.722656 C 18.273438 11.839844 18.636719 10.808594 19.523438 10.425781 C 28.273438 6.640625 35.316406 10.335938 35.613281 10.496094 C 36.5 10.972656 36.859375 12.039062 36.414062 12.878906 C 35.972656 13.71875 34.898438 14.007812 34.007812 13.539062 C 33.757812 13.40625 28.199219 10.578125 21.128906 13.636719 C 20.601562 13.859375 20.007812 13.8125 19.519531 13.546875 Z M 44.414062 21.300781 C 44.09375 21.097656 43.828125 20.796875 43.671875 20.425781 C 43.289062 19.511719 43.71875 18.507812 44.632812 18.183594 C 53.617188 15.007812 60.398438 19.175781 60.679688 19.355469 C 61.53125 19.894531 61.820312 20.980469 61.320312 21.789062 C 60.824219 22.597656 59.726562 22.8125 58.875 22.28125 C 58.628906 22.132812 53.28125 18.929688 46.019531 21.5 C 45.472656 21.6875 44.886719 21.59375 44.414062 21.300781 Z M 44.414062 21.300781 " fill-opacity="1" fill-rule="nonzero"/></svg>