<svg xmlns="http://www.w3.org/2000/svg" xmlns:xlink="http://www.w3.org/1999/xlink" width="100" zoomAndPan="magnify" viewBox="0 0 75 74.999997" height="100" preserveAspectRatio="xMidYMid meet" version="1.0"><path fill="#ffcc4d" d="M 75 37.5 C 75 58.210938 58.210938 75 37.5 75 C 16.792969 75 0 58.210938 0 37.5 C 0 16.792969 16.792969 0 37.5 0 C 58.210938 0 75 16.792969 75 37.5 " fill-opacity="1" fill-rule="nonzero"/><path fill="#ff7892" d="M 70.832031 47.917969 C 70.832031 48.601562 70.765625 49.277344 70.632812 49.949219 C 70.5 50.621094 70.300781 51.269531 70.039062 51.902344 C 69.777344 52.535156 69.457031 53.136719 69.078125 53.703125 C 68.699219 54.273438 68.265625 54.796875 67.78125 55.28125 C 67.296875 55.765625 66.773438 56.199219 66.203125 56.578125 C 65.636719 56.957031 65.035156 57.277344 64.402344 57.539062 C 63.769531 57.800781 63.121094 58 62.449219 58.132812 C 61.777344 58.265625 61.101562 58.332031 60.417969 58.332031 C 59.734375 58.332031 59.054688 58.265625 58.382812 58.132812 C 57.714844 58 57.0625 57.800781 56.429688 57.539062 C 55.796875 57.277344 55.199219 56.957031 54.628906 56.578125 C 54.0625 56.199219 53.535156 55.765625 53.050781 55.28125 C 52.566406 54.796875 52.136719 54.273438 51.753906 53.703125 C 51.375 53.136719 51.054688 52.535156 50.792969 51.902344 C 50.53125 51.269531 50.332031 50.621094 50.199219 49.949219 C 50.066406 49.277344 50 48.601562 50 47.917969 C 50 47.234375 50.066406 46.554688 50.199219 45.882812 C 50.332031 45.214844 50.53125 44.5625 50.792969 43.929688 C 51.054688 43.296875 51.375 42.699219 51.753906 42.128906 C 52.136719 41.5625 52.566406 41.035156 53.050781 40.550781 C 53.535156 40.066406 54.0625 39.636719 54.628906 39.253906 C 55.199219 38.875 55.796875 38.554688 56.429688 38.292969 C 57.0625 38.03125 57.714844 37.832031 58.382812 37.699219 C 59.054688 37.566406 59.734375 37.5 60.417969 37.5 C 61.101562 37.5 61.777344 37.566406 62.449219 37.699219 C 63.121094 37.832031 63.769531 38.03125 64.402344 38.292969 C 65.035156 38.554688 65.636719 38.875 66.203125 39.253906 C 66.773438 39.636719 67.296875 40.066406 67.78125 40.550781 C 68.265625 41.035156 68.699219 41.5625 69.078125 42.128906 C 69.457031 42.699219 69.777344 43.296875 70.039062 43.929688 C 70.300781 44.5625 70.5 45.214844 70.632812 45.882812 C 70.765625 46.554688 70.832031 47.234375 70.832031 47.917969 Z M 70.832031 47.917969 " fill-opacity="1" fill-rule="nonzero"/><path fill="#ff7892" d="M 25 47.917969 C 25 48.601562 24.933594 49.277344 24.800781 49.949219 C 24.667969 50.621094 24.46875 51.269531 24.207031 51.902344 C 23.945312 52.535156 23.625 53.136719 23.246094 53.703125 C 22.863281 54.273438 22.433594 54.796875 21.949219 55.28125 C 21.464844 55.765625 20.9375 56.199219 20.371094 56.578125 C 19.800781 56.957031 19.203125 57.277344 18.570312 57.539062 C 17.9375 57.800781 17.285156 58 16.617188 58.132812 C 15.945312 58.265625 15.265625 58.332031 14.582031 58.332031 C 13.898438 58.332031 13.222656 58.265625 12.550781 58.132812 C 11.878906 58 11.230469 57.800781 10.597656 57.539062 C 9.964844 57.277344 9.363281 56.957031 8.796875 56.578125 C 8.226562 56.199219 7.703125 55.765625 7.21875 55.28125 C 6.734375 54.796875 6.300781 54.273438 5.921875 53.703125 C 5.542969 53.136719 5.222656 52.535156 4.960938 51.902344 C 4.699219 51.269531 4.5 50.621094 4.367188 49.949219 C 4.234375 49.277344 4.167969 48.601562 4.167969 47.917969 C 4.167969 47.234375 4.234375 46.554688 4.367188 45.882812 C 4.5 45.214844 4.699219 44.5625 4.960938 43.929688 C 5.222656 43.296875 5.542969 42.699219 5.921875 42.128906 C 6.300781 41.5625 6.734375 41.035156 7.21875 40.550781 C 7.703125 40.066406 8.226562 39.636719 8.796875 39.253906 C 9.363281 38.875 9.964844 38.554688 10.597656 38.292969 C 11.230469 38.03125 11.878906 37.832031 12.550781 37.699219 C 13.222656 37.566406 13.898438 37.5 14.582031 37.5 C 15.265625 37.5 15.945312 37.566406 16.617188 37.699219 C 17.285156 37.832031 17.9375 38.03125 18.570312 38.292969 C 19.203125 38.554688 19.800781 38.875 20.371094 39.253906 C 20.9375 39.636719 21.464844 40.066406 21.949219 40.550781 C 22.433594 41.035156 22.863281 41.5625 23.246094 42.128906 C 23.625 42.699219 23.945312 43.296875 24.207031 43.929688 C 24.46875 44.5625 24.667969 45.214844 24.800781 45.882812 C 24.933594 46.554688 25 47.234375 25 47.917969 Z M 25 47.917969 " fill-opacity="1" fill-rule="nonzero"/><path fill="#f5f8fa" d="M 62.5 34.375 C 62.5 35.128906 62.425781 35.871094 62.28125 36.609375 C 62.132812 37.347656 61.914062 38.066406 61.628906 38.761719 C 61.339844 39.453125 60.988281 40.117188 60.570312 40.742188 C 60.152344 41.367188 59.675781 41.945312 59.144531 42.476562 C 58.613281 43.007812 58.03125 43.484375 57.40625 43.902344 C 56.78125 44.320312 56.121094 44.671875 55.425781 44.960938 C 54.730469 45.25 54.015625 45.464844 53.277344 45.613281 C 52.539062 45.761719 51.792969 45.832031 51.042969 45.832031 C 50.289062 45.832031 49.542969 45.761719 48.804688 45.613281 C 48.066406 45.464844 47.351562 45.25 46.65625 44.960938 C 45.960938 44.671875 45.300781 44.320312 44.675781 43.902344 C 44.050781 43.484375 43.472656 43.007812 42.9375 42.476562 C 42.40625 41.945312 41.933594 41.367188 41.515625 40.742188 C 41.097656 40.117188 40.742188 39.453125 40.457031 38.761719 C 40.167969 38.066406 39.949219 37.347656 39.804688 36.609375 C 39.65625 35.871094 39.582031 35.128906 39.582031 34.375 C 39.582031 33.621094 39.65625 32.878906 39.804688 32.140625 C 39.949219 31.402344 40.167969 30.683594 40.457031 29.988281 C 40.742188 29.296875 41.097656 28.632812 41.515625 28.007812 C 41.933594 27.382812 42.40625 26.804688 42.9375 26.273438 C 43.472656 25.742188 44.050781 25.265625 44.675781 24.847656 C 45.300781 24.429688 45.960938 24.078125 46.65625 23.789062 C 47.351562 23.5 48.066406 23.285156 48.804688 23.136719 C 49.542969 22.988281 50.289062 22.917969 51.042969 22.917969 C 51.792969 22.917969 52.539062 22.988281 53.277344 23.136719 C 54.015625 23.285156 54.730469 23.5 55.425781 23.789062 C 56.121094 24.078125 56.78125 24.429688 57.40625 24.847656 C 58.03125 25.265625 58.613281 25.742188 59.144531 26.273438 C 59.675781 26.804688 60.152344 27.382812 60.570312 28.007812 C 60.988281 28.632812 61.339844 29.296875 61.628906 29.988281 C 61.914062 30.683594 62.132812 31.402344 62.28125 32.140625 C 62.425781 32.878906 62.5 33.621094 62.5 34.375 Z M 62.5 34.375 " fill-opacity="1" fill-rule="nonzero"/><path fill="#f5f8fa" d="M 35.417969 34.375 C 35.417969 35.128906 35.34375 35.871094 35.195312 36.609375 C 35.050781 37.347656 34.832031 38.066406 34.542969 38.761719 C 34.257812 39.453125 33.902344 40.117188 33.484375 40.742188 C 33.066406 41.367188 32.59375 41.945312 32.0625 42.476562 C 31.527344 43.007812 30.949219 43.484375 30.324219 43.902344 C 29.699219 44.320312 29.039062 44.671875 28.34375 44.960938 C 27.648438 45.25 26.933594 45.464844 26.195312 45.613281 C 25.457031 45.761719 24.710938 45.832031 23.957031 45.832031 C 23.207031 45.832031 22.460938 45.761719 21.722656 45.613281 C 20.984375 45.464844 20.269531 45.25 19.574219 44.960938 C 18.878906 44.671875 18.21875 44.320312 17.59375 43.902344 C 16.96875 43.484375 16.386719 43.007812 15.855469 42.476562 C 15.324219 41.945312 14.847656 41.367188 14.429688 40.742188 C 14.011719 40.117188 13.660156 39.453125 13.371094 38.761719 C 13.085938 38.066406 12.867188 37.347656 12.71875 36.609375 C 12.574219 35.871094 12.5 35.128906 12.5 34.375 C 12.5 33.621094 12.574219 32.878906 12.71875 32.140625 C 12.867188 31.402344 13.085938 30.683594 13.371094 29.988281 C 13.660156 29.296875 14.011719 28.632812 14.429688 28.007812 C 14.847656 27.382812 15.324219 26.804688 15.855469 26.273438 C 16.386719 25.742188 16.96875 25.265625 17.59375 24.847656 C 18.21875 24.429688 18.878906 24.078125 19.574219 23.789062 C 20.269531 23.5 20.984375 23.285156 21.722656 23.136719 C 22.460938 22.988281 23.207031 22.917969 23.957031 22.917969 C 24.710938 22.917969 25.457031 22.988281 26.195312 23.136719 C 26.933594 23.285156 27.648438 23.5 28.34375 23.789062 C 29.039062 24.078125 29.699219 24.429688 30.324219 24.847656 C 30.949219 25.265625 31.527344 25.742188 32.0625 26.273438 C 32.59375 26.804688 33.066406 27.382812 33.484375 28.007812 C 33.902344 28.632812 34.257812 29.296875 34.542969 29.988281 C 34.832031 30.683594 35.050781 31.402344 35.195312 32.140625 C 35.34375 32.878906 35.417969 33.621094 35.417969 34.375 Z M 35.417969 34.375 " fill-opacity="1" fill-rule="nonzero"/><path fill="#664500" d="M 29.167969 34.375 C 29.167969 34.71875 29.132812 35.054688 29.066406 35.390625 C 29 35.726562 28.902344 36.050781 28.769531 36.367188 C 28.640625 36.683594 28.480469 36.984375 28.289062 37.269531 C 28.097656 37.554688 27.882812 37.816406 27.640625 38.058594 C 27.398438 38.300781 27.136719 38.515625 26.851562 38.707031 C 26.566406 38.894531 26.265625 39.054688 25.953125 39.1875 C 25.636719 39.316406 25.308594 39.417969 24.972656 39.484375 C 24.640625 39.550781 24.300781 39.582031 23.957031 39.582031 C 23.617188 39.582031 23.277344 39.550781 22.941406 39.484375 C 22.605469 39.417969 22.28125 39.316406 21.964844 39.1875 C 21.648438 39.054688 21.347656 38.894531 21.066406 38.707031 C 20.78125 38.515625 20.515625 38.300781 20.277344 38.058594 C 20.035156 37.816406 19.816406 37.554688 19.628906 37.269531 C 19.4375 36.984375 19.277344 36.683594 19.144531 36.367188 C 19.015625 36.050781 18.917969 35.726562 18.851562 35.390625 C 18.785156 35.054688 18.75 34.71875 18.75 34.375 C 18.75 34.03125 18.785156 33.695312 18.851562 33.359375 C 18.917969 33.023438 19.015625 32.699219 19.144531 32.382812 C 19.277344 32.066406 19.4375 31.765625 19.628906 31.480469 C 19.816406 31.195312 20.035156 30.933594 20.277344 30.691406 C 20.515625 30.449219 20.78125 30.234375 21.066406 30.042969 C 21.347656 29.855469 21.648438 29.695312 21.964844 29.5625 C 22.28125 29.433594 22.605469 29.332031 22.941406 29.265625 C 23.277344 29.199219 23.617188 29.167969 23.957031 29.167969 C 24.300781 29.167969 24.640625 29.199219 24.972656 29.265625 C 25.308594 29.332031 25.636719 29.433594 25.953125 29.5625 C 26.265625 29.695312 26.566406 29.855469 26.851562 30.042969 C 27.136719 30.234375 27.398438 30.449219 27.640625 30.691406 C 27.882812 30.933594 28.097656 31.195312 28.289062 31.480469 C 28.480469 31.765625 28.640625 32.066406 28.769531 32.382812 C 28.902344 32.699219 29 33.023438 29.066406 33.359375 C 29.132812 33.695312 29.167969 34.03125 29.167969 34.375 Z M 29.167969 34.375 " fill-opacity="1" fill-rule="nonzero"/><path fill="#664500" d="M 56.25 34.375 C 56.25 34.71875 56.214844 35.054688 56.148438 35.390625 C 56.082031 35.726562 55.984375 36.050781 55.855469 36.367188 C 55.722656 36.683594 55.5625 36.984375 55.371094 37.269531 C 55.183594 37.554688 54.964844 37.816406 54.722656 38.058594 C 54.484375 38.300781 54.21875 38.515625 53.933594 38.707031 C 53.652344 38.894531 53.351562 39.054688 53.035156 39.1875 C 52.71875 39.316406 52.394531 39.417969 52.058594 39.484375 C 51.722656 39.550781 51.382812 39.582031 51.042969 39.582031 C 50.699219 39.582031 50.359375 39.550781 50.027344 39.484375 C 49.691406 39.417969 49.363281 39.316406 49.046875 39.1875 C 48.734375 39.054688 48.433594 38.894531 48.148438 38.707031 C 47.863281 38.515625 47.601562 38.300781 47.359375 38.058594 C 47.117188 37.816406 46.902344 37.554688 46.710938 37.269531 C 46.519531 36.984375 46.359375 36.683594 46.230469 36.367188 C 46.097656 36.050781 46 35.726562 45.933594 35.390625 C 45.867188 35.054688 45.832031 34.71875 45.832031 34.375 C 45.832031 34.03125 45.867188 33.695312 45.933594 33.359375 C 46 33.023438 46.097656 32.699219 46.230469 32.382812 C 46.359375 32.066406 46.519531 31.765625 46.710938 31.480469 C 46.902344 31.195312 47.117188 30.933594 47.359375 30.691406 C 47.601562 30.449219 47.863281 30.234375 48.148438 30.042969 C 48.433594 29.855469 48.734375 29.695312 49.046875 29.5625 C 49.363281 29.433594 49.691406 29.332031 50.027344 29.265625 C 50.359375 29.199219 50.699219 29.167969 51.042969 29.167969 C 51.382812 29.167969 51.722656 29.199219 52.058594 29.265625 C 52.394531 29.332031 52.71875 29.433594 53.035156 29.5625 C 53.351562 29.695312 53.652344 29.855469 53.933594 30.042969 C 54.21875 30.234375 54.484375 30.449219 54.722656 30.691406 C 54.964844 30.933594 55.183594 31.195312 55.371094 31.480469 C 55.5625 31.765625 55.722656 32.066406 55.855469 32.382812 C 55.984375 32.699219 56.082031 33.023438 56.148438 33.359375 C 56.214844 33.695312 56.25 34.03125 56.25 34.375 Z M 56.25 34.375 " fill-opacity="1" fill-rule="nonzero"/><path fill="#664500" d="M 45.832031 62.5 L 29.167969 62.5 C 28.015625 62.5 27.082031 61.570312 27.082031 60.417969 C 27.082031 59.265625 28.015625 58.332031 29.167969 58.332031 L 45.832031 58.332031 C 46.984375 58.332031 47.917969 59.265625 47.917969 60.417969 C 47.917969 61.570312 46.984375 62.5 45.832031 62.5 Z M 62.503906 22.917969 C 61.867188 22.917969 61.242188 22.628906 60.832031 22.082031 C 55.332031 14.746094 48.207031 14.585938 47.902344 14.582031 C 46.757812 14.570312 45.832031 13.632812 45.839844 12.488281 C 45.847656 11.339844 46.769531 10.417969 47.917969 10.417969 C 48.300781 10.417969 57.367188 10.519531 64.167969 19.582031 C 64.859375 20.503906 64.671875 21.808594 63.75 22.5 C 63.375 22.78125 62.9375 22.917969 62.503906 22.917969 Z M 12.496094 22.917969 C 12.066406 22.917969 11.625 22.78125 11.25 22.5 C 10.328125 21.808594 10.144531 20.503906 10.832031 19.582031 C 17.628906 10.519531 26.699219 10.417969 27.082031 10.417969 C 28.234375 10.417969 29.167969 11.351562 29.167969 12.5 C 29.167969 13.648438 28.238281 14.578125 27.089844 14.582031 C 26.769531 14.585938 19.660156 14.761719 14.167969 22.082031 C 13.757812 22.628906 13.132812 22.917969 12.496094 22.917969 Z M 12.496094 22.917969 " fill-opacity="1" fill-rule="nonzero"/></svg>