<svg xmlns="http://www.w3.org/2000/svg" xmlns:xlink="http://www.w3.org/1999/xlink" width="100" zoomAndPan="magnify" viewBox="0 0 75 74.999997" height="100" preserveAspectRatio="xMidYMid meet" version="1.0"><path fill="#ffcc4d" d="M 75 37.5 C 75 58.210938 58.210938 75 37.5 75 C 16.789062 75 0 58.210938 0 37.5 C 0 16.789062 16.789062 0 37.5 0 C 58.210938 0 75 16.789062 75 37.5 " fill-opacity="1" fill-rule="nonzero"/><path fill="#664500" d="M 45.832031 56.25 C 45.832031 62.007812 42.101562 62.5 37.5 62.5 C 32.894531 62.5 29.167969 62.007812 29.167969 56.25 C 29.167969 50.496094 32.894531 43.75 37.5 43.75 C 42.101562 43.75 45.832031 50.496094 45.832031 56.25 Z M 62.5 31.25 C 62.242188 31.25 61.980469 31.203125 61.726562 31.101562 C 50.832031 26.742188 46.367188 20.179688 46.183594 19.902344 C 45.542969 18.945312 45.800781 17.652344 46.761719 17.015625 C 47.714844 16.378906 49.003906 16.632812 49.644531 17.585938 C 49.683594 17.640625 53.667969 23.386719 63.273438 27.230469 C 64.339844 27.660156 64.863281 28.867188 64.433594 29.9375 C 64.109375 30.753906 63.324219 31.25 62.5 31.25 Z M 12.5 31.25 C 11.671875 31.25 10.890625 30.753906 10.566406 29.941406 C 10.136719 28.871094 10.65625 27.660156 11.726562 27.230469 C 21.332031 23.390625 25.316406 17.644531 25.355469 17.585938 C 25.996094 16.636719 27.289062 16.386719 28.242188 17.023438 C 29.195312 17.667969 29.453125 18.953125 28.816406 19.90625 C 28.632812 20.183594 24.167969 26.746094 13.273438 31.101562 C 13.019531 31.203125 12.757812 31.25 12.5 31.25 Z M 12.5 31.25 " fill-opacity="1" fill-rule="nonzero"/><path fill="#5dadec" d="M 50 33.332031 L 58.332031 33.332031 L 58.332031 72.917969 L 50 72.820312 Z M 16.667969 72.917969 L 25 72.820312 L 25 33.332031 L 16.667969 33.332031 Z M 16.667969 72.917969 " fill-opacity="1" fill-rule="nonzero"/><path fill="#664500" d="M 31.246094 37.5 C 30.933594 37.5 30.617188 37.429688 30.320312 37.28125 C 23.003906 33.621094 15.589844 37.242188 15.515625 37.28125 C 14.484375 37.800781 13.234375 37.378906 12.722656 36.351562 C 12.207031 35.320312 12.621094 34.070312 13.652344 33.554688 C 14.03125 33.367188 23.023438 28.976562 32.183594 33.554688 C 33.210938 34.070312 33.628906 35.320312 33.113281 36.351562 C 32.746094 37.078125 32.011719 37.5 31.246094 37.5 Z M 60.414062 37.5 C 60.101562 37.5 59.785156 37.429688 59.484375 37.28125 C 52.167969 33.621094 44.757812 37.242188 44.683594 37.28125 C 43.652344 37.796875 42.402344 37.378906 41.886719 36.351562 C 41.371094 35.320312 41.789062 34.070312 42.820312 33.554688 C 43.199219 33.367188 52.195312 28.980469 61.351562 33.554688 C 62.378906 34.070312 62.796875 35.320312 62.28125 36.351562 C 61.914062 37.078125 61.179688 37.5 60.414062 37.5 Z M 60.414062 37.5 " fill-opacity="1" fill-rule="nonzero"/><path fill="#5dadec" d="M 75 70.832031 C 75 70.96875 74.941406 71.105469 74.820312 71.242188 C 74.699219 71.378906 74.519531 71.511719 74.28125 71.644531 C 74.039062 71.78125 73.742188 71.914062 73.386719 72.042969 C 73.027344 72.171875 72.617188 72.300781 72.144531 72.429688 C 71.675781 72.554688 71.152344 72.675781 70.570312 72.796875 C 69.992188 72.917969 69.363281 73.035156 68.679688 73.148438 C 67.996094 73.261719 67.265625 73.371094 66.488281 73.476562 C 65.707031 73.582031 64.886719 73.683594 64.015625 73.78125 C 63.148438 73.875 62.238281 73.96875 61.289062 74.054688 C 60.339844 74.140625 59.355469 74.222656 58.332031 74.296875 C 57.3125 74.375 56.261719 74.445312 55.175781 74.507812 C 54.09375 74.574219 52.984375 74.628906 51.851562 74.683594 C 50.714844 74.734375 49.5625 74.78125 48.386719 74.820312 C 47.210938 74.859375 46.019531 74.894531 44.816406 74.921875 C 43.609375 74.945312 42.398438 74.964844 41.175781 74.980469 C 39.953125 74.992188 38.726562 75 37.5 75 C 36.273438 75 35.046875 74.992188 33.824219 74.980469 C 32.601562 74.964844 31.390625 74.945312 30.183594 74.921875 C 28.980469 74.894531 27.789062 74.859375 26.613281 74.820312 C 25.4375 74.78125 24.285156 74.734375 23.148438 74.683594 C 22.015625 74.628906 20.90625 74.574219 19.824219 74.507812 C 18.738281 74.445312 17.6875 74.375 16.667969 74.296875 C 15.644531 74.222656 14.660156 74.140625 13.710938 74.054688 C 12.761719 73.96875 11.851562 73.875 10.984375 73.78125 C 10.113281 73.683594 9.292969 73.582031 8.511719 73.476562 C 7.734375 73.371094 7.003906 73.261719 6.320312 73.148438 C 5.636719 73.035156 5.007812 72.917969 4.429688 72.796875 C 3.847656 72.675781 3.324219 72.554688 2.855469 72.429688 C 2.382812 72.300781 1.972656 72.171875 1.613281 72.042969 C 1.257812 71.914062 0.960938 71.78125 0.71875 71.644531 C 0.480469 71.511719 0.300781 71.378906 0.179688 71.242188 C 0.0585938 71.105469 0 70.96875 0 70.832031 C 0 70.695312 0.0585938 70.5625 0.179688 70.425781 C 0.300781 70.289062 0.480469 70.152344 0.71875 70.019531 C 0.960938 69.886719 1.257812 69.753906 1.613281 69.625 C 1.972656 69.492188 2.382812 69.363281 2.855469 69.238281 C 3.324219 69.113281 3.847656 68.988281 4.429688 68.871094 C 5.007812 68.75 5.636719 68.632812 6.320312 68.519531 C 7.003906 68.40625 7.734375 68.296875 8.511719 68.191406 C 9.292969 68.085938 10.113281 67.984375 10.984375 67.886719 C 11.851562 67.789062 12.761719 67.699219 13.710938 67.613281 C 14.660156 67.527344 15.644531 67.445312 16.667969 67.367188 C 17.6875 67.292969 18.738281 67.222656 19.824219 67.160156 C 20.90625 67.09375 22.015625 67.035156 23.148438 66.984375 C 24.285156 66.929688 25.4375 66.886719 26.613281 66.847656 C 27.789062 66.804688 28.980469 66.773438 30.183594 66.746094 C 31.390625 66.71875 32.601562 66.699219 33.824219 66.6875 C 35.046875 66.671875 36.273438 66.667969 37.5 66.667969 C 38.726562 66.667969 39.953125 66.671875 41.175781 66.6875 C 42.398438 66.699219 43.609375 66.71875 44.816406 66.746094 C 46.019531 66.773438 47.210938 66.804688 48.386719 66.847656 C 49.5625 66.886719 50.714844 66.929688 51.851562 66.984375 C 52.984375 67.035156 54.09375 67.09375 55.175781 67.160156 C 56.261719 67.222656 57.3125 67.292969 58.332031 67.367188 C 59.355469 67.445312 60.339844 67.527344 61.289062 67.613281 C 62.238281 67.699219 63.148438 67.789062 64.015625 67.886719 C 64.886719 67.984375 65.707031 68.085938 66.488281 68.191406 C 67.265625 68.296875 67.996094 68.40625 68.679688 68.519531 C 69.363281 68.632812 69.992188 68.75 70.570312 68.871094 C 71.152344 68.988281 71.675781 69.113281 72.144531 69.238281 C 72.617188 69.363281 73.027344 69.492188 73.386719 69.625 C 73.742188 69.753906 74.039062 69.886719 74.28125 70.019531 C 74.519531 70.152344 74.699219 70.289062 74.820312 70.425781 C 74.941406 70.5625 75 70.695312 75 70.832031 Z M 75 70.832031 " fill-opacity="1" fill-rule="nonzero"/><path fill="#e75a70" d="M 43.75 56.25 C 43.75 56.523438 43.710938 56.792969 43.628906 57.0625 C 43.550781 57.332031 43.429688 57.589844 43.273438 57.84375 C 43.117188 58.097656 42.925781 58.335938 42.695312 58.566406 C 42.46875 58.792969 42.210938 59.003906 41.917969 59.195312 C 41.628906 59.390625 41.3125 59.5625 40.972656 59.714844 C 40.632812 59.867188 40.269531 59.996094 39.890625 60.097656 C 39.511719 60.203125 39.121094 60.285156 38.71875 60.335938 C 38.316406 60.390625 37.910156 60.417969 37.5 60.417969 C 37.089844 60.417969 36.683594 60.390625 36.28125 60.335938 C 35.878906 60.285156 35.488281 60.203125 35.109375 60.097656 C 34.730469 59.996094 34.367188 59.867188 34.027344 59.714844 C 33.6875 59.5625 33.371094 59.390625 33.082031 59.195312 C 32.789062 59.003906 32.53125 58.792969 32.304688 58.566406 C 32.074219 58.335938 31.882812 58.097656 31.726562 57.84375 C 31.570312 57.589844 31.449219 57.332031 31.371094 57.0625 C 31.289062 56.792969 31.25 56.523438 31.25 56.25 C 31.25 55.976562 31.289062 55.707031 31.371094 55.4375 C 31.449219 55.167969 31.570312 54.910156 31.726562 54.65625 C 31.882812 54.402344 32.074219 54.164062 32.304688 53.933594 C 32.53125 53.707031 32.789062 53.496094 33.082031 53.304688 C 33.371094 53.109375 33.6875 52.9375 34.027344 52.785156 C 34.367188 52.632812 34.730469 52.503906 35.109375 52.402344 C 35.488281 52.296875 35.878906 52.214844 36.28125 52.164062 C 36.683594 52.109375 37.089844 52.082031 37.5 52.082031 C 37.910156 52.082031 38.316406 52.109375 38.71875 52.164062 C 39.121094 52.214844 39.511719 52.296875 39.890625 52.402344 C 40.269531 52.503906 40.632812 52.632812 40.972656 52.785156 C 41.3125 52.9375 41.628906 53.109375 41.917969 53.304688 C 42.210938 53.496094 42.46875 53.707031 42.695312 53.933594 C 42.925781 54.164062 43.117188 54.402344 43.273438 54.65625 C 43.429688 54.910156 43.550781 55.167969 43.628906 55.4375 C 43.710938 55.707031 43.75 55.976562 43.75 56.25 Z M 43.75 56.25 " fill-opacity="1" fill-rule="nonzero"/></svg>